<svg width="1200" height="800" xmlns="http://www.w3.org/2000/svg">
  <!-- Background -->
  <rect width="1200" height="800" fill="#FFFFFF"/>
  
  <!-- Title -->
  <text x="600" y="40" text-anchor="middle" font-family="Arial, sans-serif" font-size="24" font-weight="bold" fill="#333333">
    High-Throughput Data Pipeline Architecture
  </text>
  
  <!-- PostgreSQL Database (Source System) -->
  <g id="postgresql">
    <!-- Main container -->
    <rect x="50" y="120" width="200" height="180" rx="8" fill="#336791" stroke="#2A5490" stroke-width="2"/>
    <rect x="55" y="125" width="190" height="170" rx="5" fill="#4A7BA7" opacity="0.3"/>
    
    <!-- Database cylinder icon -->
    <ellipse cx="150" cy="150" rx="25" ry="8" fill="#FFFFFF"/>
    <rect x="125" y="150" width="50" height="20" fill="#FFFFFF"/>
    <ellipse cx="150" cy="170" rx="25" ry="8" fill="#FFFFFF"/>
    
    <!-- PostgreSQL Logo (PG) -->
    <circle cx="150" cy="190" r="15" fill="#FFFFFF"/>
    <text x="150" y="196" text-anchor="middle" font-family="Arial, sans-serif" font-size="12" font-weight="bold" fill="#336791">PG</text>
    
    <!-- Labels -->
    <text x="150" y="225" text-anchor="middle" font-family="Arial, sans-serif" font-size="16" font-weight="600" fill="#FFFFFF">PostgreSQL Database</text>
    <text x="150" y="245" text-anchor="middle" font-family="Arial, sans-serif" font-size="12" fill="#FFFFFF">clientes table</text>
    
    <!-- Schema fields -->
    <text x="70" y="265" font-family="Arial, sans-serif" font-size="10" fill="#FFFFFF">• id (Primary Key)</text>
    <text x="70" y="278" font-family="Arial, sans-serif" font-size="10" fill="#FFFFFF">• nombre (VARCHAR)</text>
    <text x="70" y="291" font-family="Arial, sans-serif" font-size="10" fill="#FFFFFF">• email (VARCHAR)</text>
  </g>
  
  <!-- Debezium CDC Connector -->
  <g id="debezium">
    <!-- Hexagonal connector -->
    <polygon points="320,180 350,160 380,180 380,220 350,240 320,220" fill="#FF6B35" stroke="#E55A2B" stroke-width="2"/>
    <text x="350" y="205" text-anchor="middle" font-family="Arial, sans-serif" font-size="12" font-weight="600" fill="#FFFFFF">CDC</text>
    
    <!-- Label -->
    <text x="350" y="260" text-anchor="middle" font-family="Arial, sans-serif" font-size="14" font-weight="600" fill="#FF6B35">Debezium</text>
    <text x="350" y="275" text-anchor="middle" font-family="Arial, sans-serif" font-size="12" fill="#666666">CDC Connector</text>
  </g>
  
  <!-- Apache Kafka Cluster (Center) -->
  <g id="kafka">
    <!-- Main cluster container -->
    <rect x="450" y="100" width="300" height="220" rx="8" fill="#231F20" stroke="#1A1617" stroke-width="2"/>
    <rect x="455" y="105" width="290" height="210" rx="5" fill="#333333" opacity="0.3"/>
    
    <!-- Kafka logo elements -->
    <circle cx="600" cy="140" r="20" fill="#FFFFFF"/>
    <text x="600" y="147" text-anchor="middle" font-family="Arial, sans-serif" font-size="14" font-weight="bold" fill="#231F20">K</text>
    
    <!-- Labels -->
    <text x="600" y="170" text-anchor="middle" font-family="Arial, sans-serif" font-size="16" font-weight="600" fill="#FFFFFF">Apache Kafka Cluster</text>
    
    <!-- Topic -->
    <rect x="470" y="185" width="120" height="35" rx="4" fill="#444444" stroke="#666666"/>
    <text x="530" y="200" text-anchor="middle" font-family="Arial, sans-serif" font-size="12" fill="#FFFFFF">Topic:</text>
    <text x="530" y="213" text-anchor="middle" font-family="Arial, sans-serif" font-size="11" fill="#FFFFFF">clientes-changes</text>
    
    <!-- Kafka Connect -->
    <rect x="610" y="185" width="120" height="35" rx="4" fill="#444444" stroke="#666666"/>
    <text x="670" y="205" text-anchor="middle" font-family="Arial, sans-serif" font-size="12" fill="#FFFFFF">Kafka Connect</text>
    
    <!-- Partitions -->
    <text x="600" y="240" text-anchor="middle" font-family="Arial, sans-serif" font-size="12" fill="#CCCCCC">Partitions:</text>
    <rect x="570" y="245" width="20" height="15" fill="#666666"/>
    <rect x="595" y="245" width="20" height="15" fill="#666666"/>
    <rect x="620" y="245" width="20" height="15" fill="#666666"/>
    
    <!-- High Volume indicator -->
    <rect x="470" y="270" width="80" height="25" rx="3" fill="#FF6B35"/>
    <text x="510" y="285" text-anchor="middle" font-family="Arial, sans-serif" font-size="10" fill="#FFFFFF">High Volume</text>
  </g>
  
  <!-- Quarkus + Apache Camel Processing Layer -->
  <g id="quarkus">
    <!-- Main container -->
    <rect x="450" y="380" width="300" height="180" rx="8" fill="#C41E3A" stroke="#A01729" stroke-width="2"/>
    <rect x="455" y="385" width="290" height="170" rx="5" fill="#D63447" opacity="0.3"/>
    
    <!-- Quarkus logo placeholder -->
    <circle cx="600" cy="420" r="15" fill="#FFFFFF"/>
    <text x="600" y="426" text-anchor="middle" font-family="Arial, sans-serif" font-size="12" font-weight="bold" fill="#C41E3A">Q</text>
    
    <!-- Labels -->
    <text x="600" y="445" text-anchor="middle" font-family="Arial, sans-serif" font-size="16" font-weight="600" fill="#FFFFFF">Quarkus Microservice</text>
    
    <!-- Sub-components -->
    <rect x="470" y="460" width="100" height="30" rx="4" fill="#8B1E3F" stroke="#FFFFFF"/>
    <text x="520" y="477" text-anchor="middle" font-family="Arial, sans-serif" font-size="11" fill="#FFFFFF">Apache Camel</text>
    <text x="520" y="488" text-anchor="middle" font-family="Arial, sans-serif" font-size="10" fill="#FFFFFF">Routes</text>
    
    <rect x="580" y="460" width="100" height="30" rx="4" fill="#8B1E3F" stroke="#FFFFFF"/>
    <text x="630" y="477" text-anchor="middle" font-family="Arial, sans-serif" font-size="11" fill="#FFFFFF">Data Transform</text>
    
    <!-- Transformation icon (gear) -->
    <circle cx="600" cy="510" r="12" fill="none" stroke="#FFFFFF" stroke-width="2"/>
    <polygon points="594,510 606,510 606,504 612,510 606,516 606,510" fill="#FFFFFF"/>
    
    <!-- Consumer Group -->
    <rect x="470" y="520" width="100" height="25" rx="3" fill="#8B1E3F"/>
    <text x="520" y="535" text-anchor="middle" font-family="Arial, sans-serif" font-size="10" fill="#FFFFFF">Consumer Group</text>
  </g>
  
  <!-- MongoDB (Target System) -->
  <g id="mongodb">
    <!-- Main container -->
    <rect x="850" y="120" width="200" height="180" rx="8" fill="#47A248" stroke="#3E8B3E" stroke-width="2"/>
    <rect x="855" y="125" width="190" height="170" rx="5" fill="#5CB85C" opacity="0.3"/>
    
    <!-- MongoDB leaf logo -->
    <path d="M950 150 Q955 140, 960 150 Q955 160, 950 170 Q945 160, 950 150" fill="#FFFFFF"/>
    <ellipse cx="950" cy="175" rx="8" ry="4" fill="#FFFFFF"/>
    
    <!-- Labels -->
    <text x="950" y="200" text-anchor="middle" font-family="Arial, sans-serif" font-size="16" font-weight="600" fill="#FFFFFF">MongoDB Database</text>
    <text x="950" y="220" text-anchor="middle" font-family="Arial, sans-serif" font-size="12" fill="#FFFFFF">clientes collection</text>
    
    <!-- Document structure -->
    <text x="870" y="245" font-family="Arial, sans-serif" font-size="10" fill="#FFFFFF">• _id (ObjectId)</text>
    <text x="870" y="258" font-family="Arial, sans-serif" font-size="10" fill="#FFFFFF">• nombre (String)</text>
    <text x="870" y="271" font-family="Arial, sans-serif" font-size="10" fill="#FFFFFF">• email (String)</text>
    <text x="870" y="284" font-family="Arial, sans-serif" font-size="10" fill="#FFFFFF">• fecha_creacion (Date)</text>
  </g>
  
  <!-- Optional REST API -->
  <g id="rest-api">
    <rect x="850" y="350" width="200" height="60" rx="6" fill="#6C757D" stroke="#5A6268" stroke-width="2"/>
    <text x="950" y="375" text-anchor="middle" font-family="Arial, sans-serif" font-size="14" font-weight="600" fill="#FFFFFF">REST API</text>
    <text x="950" y="395" text-anchor="middle" font-family="Arial, sans-serif" font-size="12" fill="#FFFFFF">Cliente Queries</text>
  </g>
  
  <!-- Data Flow Arrows and Labels -->
  
  <!-- PostgreSQL to Debezium -->
  <defs>
    <marker id="arrowhead" markerWidth="10" markerHeight="7" refX="9" refY="3.5" orient="auto">
      <polygon points="0 0, 10 3.5, 0 7" fill="#666666"/>
    </marker>
  </defs>
  
  <line x1="250" y1="200" x2="320" y2="200" stroke="#666666" stroke-width="3" marker-end="url(#arrowhead)"/>
  <text x="285" y="190" text-anchor="middle" font-family="Arial, sans-serif" font-size="10" font-style="italic" fill="#666666">INSERT/UPDATE/DELETE</text>
  <text x="285" y="215" text-anchor="middle" font-family="Arial, sans-serif" font-size="10" font-style="italic" fill="#666666">Events</text>
  
  <!-- Debezium to Kafka -->
  <line x1="380" y1="200" x2="450" y2="200" stroke="#666666" stroke-width="3" marker-end="url(#arrowhead)"/>
  <text x="415" y="190" text-anchor="middle" font-family="Arial, sans-serif" font-size="10" font-style="italic" fill="#666666">Change Events</text>
  
  <!-- Kafka to Quarkus -->
  <line x1="600" y1="320" x2="600" y2="380" stroke="#666666" stroke-width="3" marker-end="url(#arrowhead)"/>
  <text x="630" y="350" font-family="Arial, sans-serif" font-size="10" font-style="italic" fill="#666666">JSON Messages</text>
  
  <!-- Quarkus to MongoDB -->
  <line x1="750" y1="470" x2="850" y2="210" stroke="#666666" stroke-width="3" marker-end="url(#arrowhead)"/>
  <text x="800" y="340" text-anchor="middle" font-family="Arial, sans-serif" font-size="10" font-style="italic" fill="#666666">Transformed</text>
  <text x="800" y="355" text-anchor="middle" font-family="Arial, sans-serif" font-size="10" font-style="italic" fill="#666666">Documents</text>
  
  <!-- MongoDB to REST API -->
  <line x1="950" y1="300" x2="950" y2="350" stroke="#666666" stroke-width="2" marker-end="url(#arrowhead)"/>
  
  <!-- Docker Container Indicators -->
  <rect x="40" y="110" width="220" height="200" rx="5" fill="none" stroke="#E0E0E0" stroke-width="1" stroke-dasharray="5,5"/>
  <text x="50" y="105" font-family="Arial, sans-serif" font-size="9" fill="#999999">🐳 Docker</text>
  
  <rect x="440" y="90" width="320" height="240" rx="5" fill="none" stroke="#E0E0E0" stroke-width="1" stroke-dasharray="5,5"/>
  <text x="450" y="85" font-family="Arial, sans-serif" font-size="9" fill="#999999">🐳 Docker</text>
  
  <rect x="440" y="370" width="320" height="200" rx="5" fill="none" stroke="#E0E0E0" stroke-width="1" stroke-dasharray="5,5"/>
  <text x="450" y="365" font-family="Arial, sans-serif" font-size="9" fill="#999999">🐳 Docker</text>
  
  <rect x="840" y="110" width="220" height="200" rx="5" fill="none" stroke="#E0E0E0" stroke-width="1" stroke-dasharray="5,5"/>
  <text x="850" y="105" font-family="Arial, sans-serif" font-size="9" fill="#999999">🐳 Docker</text>
  
  <!-- Protocol and Data Type Labels -->
  <rect x="285" y="230" width="40" height="15" rx="2" fill="#FFE066"/>
  <text x="305" y="240" text-anchor="middle" font-family="Arial, sans-serif" font-size="8" fill="#333333">AVRO</text>
  
  <rect x="415" y="230" width="40" height="15" rx="2" fill="#66B3FF"/>
  <text x="435" y="240" text-anchor="middle" font-family="Arial, sans-serif" font-size="8" fill="#333333">JSON</text>
  
  <rect x="770" y="340" width="35" height="15" rx="2" fill="#66FF66"/>
  <text x="787.5" y="350" text-anchor="middle" font-family="Arial, sans-serif" font-size="8" fill="#333333">HTTP</text>
  
  <!-- Monitoring Elements -->
  <circle cx="1150" cy="100" r="20" fill="#17A2B8" stroke="#138496" stroke-width="2"/>
  <rect x="1145" y="95" width="10" height="10" fill="#FFFFFF"/>
  <text x="1150" y="130" text-anchor="middle" font-family="Arial, sans-serif" font-size="10" fill="#17A2B8">Monitoring</text>
  
  <!-- Error Handling Symbol -->
  <polygon points="520,350 530,350 525,340" fill="#FFC107" stroke="#E0A800" stroke-width="1"/>
  <text x="525" y="365" text-anchor="middle" font-family="Arial, sans-serif" font-size="8" fill="#E0A800">Retry Logic</text>
  
  <!-- Performance Indicator -->
  <rect x="50" y="650" width="150" height="80" rx="5" fill="#F8F9FA" stroke="#DEE2E6" stroke-width="1"/>
  <text x="125" y="670" text-anchor="middle" font-family="Arial, sans-serif" font-size="12" font-weight="600" fill="#495057">Performance</text>
  <text x="125" y="690" text-anchor="middle" font-family="Arial, sans-serif" font-size="10" fill="#6C757D">• High Throughput</text>
  <text x="125" y="705" text-anchor="middle" font-family="Arial, sans-serif" font-size="10" fill="#6C757D">• Real-time Sync</text>
  <text x="125" y="720" text-anchor="middle" font-family="Arial, sans-serif" font-size="10" fill="#6C757D">• Fault Tolerant</text>
  
  <!-- Legend -->
  <rect x="850" y="650" width="300" height="120" rx="5" fill="#F8F9FA" stroke="#DEE2E6" stroke-width="1"/>
  <text x="1000" y="670" text-anchor="middle" font-family="Arial, sans-serif" font-size="12" font-weight="600" fill="#495057">Technology Stack</text>
  
  <circle cx="870" cy="690" r="8" fill="#336791"/>
  <text x="890" y="695" font-family="Arial, sans-serif" font-size="10" fill="#495057">PostgreSQL (Source)</text>
  
  <circle cx="870" cy="710" r="8" fill="#FF6B35"/>
  <text x="890" y="715" font-family="Arial, sans-serif" font-size="10" fill="#495057">Debezium CDC</text>
  
  <circle cx="870" cy="730" r="8" fill="#231F20"/>
  <text x="890" y="735" font-family="Arial, sans-serif" font-size="10" fill="#495057">Apache Kafka</text>
  
  <circle cx="1020" cy="690" r="8" fill="#C41E3A"/>
  <text x="1040" y="695" font-family="Arial, sans-serif" font-size="10" fill="#495057">Quarkus + Camel</text>
  
  <circle cx="1020" cy="710" r="8" fill="#47A248"/>
  <text x="1040" y="715" font-family="Arial, sans-serif" font-size="10" fill="#495057">MongoDB (Target)</text>
  
  <circle cx="1020" cy="730" r="8" fill="#6C757D"/>
  <text x="1040" y="735" font-family="Arial, sans-serif" font-size="10" fill="#495057">REST API (Optional)</text>
</svg>